<svg t="1690642107746" class="icon" viewBox="0 0 1024 1024" version="1.1" xmlns="http://www.w3.org/2000/svg" p-id="2289" width="48" height="48"><path d="M512 554.666667a213.333333 213.333333 0 0 0 213.333333-213.333334V256A213.333333 213.333333 0 0 0 298.666667 256v85.333333a213.333333 213.333333 0 0 0 213.333333 213.333334zM384 256a128 128 0 1 1 256 0v85.333333a128 128 0 0 1-256 0zM640 597.333333H384c-165.12 0-256 90.88-256 256v85.333334a42.666667 42.666667 0 0 0 42.666667 42.666666h682.666666a42.666667 42.666667 0 0 0 42.666667-42.666666v-85.333334c0-165.12-90.88-256-256-256z m170.666667 298.666667H213.333333v-42.666667c0-116.48 54.186667-170.666667 170.666667-170.666666h256c116.48 0 170.666667 54.186667 170.666667 170.666666z" p-id="2290"></path></svg>